<svg
	xmlns="http://www.w3.org/2000/svg"
	xmlns:xlink="http://www.w3.org/1999/xlink"
	width="64"
	zoomAndPan="magnify"
	viewBox="0 0 48 48"
	height="64"
	preserveAspectRatio="xMidYMid meet"
	version="1.0"
>
	<defs>
		<clipPath id="7dee1602e4">
			<path
				d="M 0.488281 0 L 43 0 L 43 47.019531 L 0.488281 47.019531 Z M 0.488281 0 "
				clip-rule="nonzero"
			/>
		</clipPath>
		<clipPath id="bd56f9ab73">
			<path
				d="M 17 0 L 46 0 L 46 47.019531 L 17 47.019531 Z M 17 0 "
				clip-rule="nonzero"
			/>
		</clipPath>
		<clipPath id="da7761ddb7">
			<path
				d="M 0.488281 0 L 46 0 L 46 47.019531 L 0.488281 47.019531 Z M 0.488281 0 "
				clip-rule="nonzero"
			/>
		</clipPath>
		<clipPath id="9da0598c04">
			<path
				d="M 0.488281 11 L 47.507812 11 L 47.507812 47.019531 L 0.488281 47.019531 Z M 0.488281 11 "
				clip-rule="nonzero"
			/>
		</clipPath>
		<clipPath id="146c1216ad">
			<path
				d="M 0.488281 0 L 47.507812 0 L 47.507812 36 L 0.488281 36 Z M 0.488281 0 "
				clip-rule="nonzero"
			/>
		</clipPath>
	</defs>
	<g clip-path="url(#7dee1602e4)">
		<path
			stroke-linecap="round"
			transform="matrix(0.456444, 0.580207, -0.577429, 0.454258, 3.092025, 5.517116)"
			fill="none"
			stroke-linejoin="miter"
			d="M 1.501267 1.501679 L 60.216338 1.500556 "
			stroke="#ffffff"
			stroke-width="3"
			stroke-opacity="1"
			stroke-miterlimit="4"
		/>
	</g>
	<g clip-path="url(#bd56f9ab73)">
		<path
			stroke-linecap="round"
			transform="matrix(0.0525781, -0.733858, 0.732815, 0.0525034, 29.260357, 41.828413)"
			fill="none"
			stroke-linejoin="miter"
			d="M 1.502204 1.49855 L 53.421805 1.499418 "
			stroke="#ffffff"
			stroke-width="3"
			stroke-opacity="1"
			stroke-miterlimit="4"
		/>
	</g>
	<g clip-path="url(#da7761ddb7)">
		<path
			stroke-linecap="round"
			transform="matrix(0.444497, -0.590643, 0.587032, 0.441779, 2.189528, 41.245061)"
			fill="none"
			stroke-linejoin="miter"
			d="M 1.499381 1.502957 L 67.07803 1.501132 "
			stroke="#ffffff"
			stroke-width="3"
			stroke-opacity="1"
			stroke-miterlimit="4"
		/>
	</g>
	<g clip-path="url(#9da0598c04)">
		<path
			stroke-linecap="round"
			transform="matrix(0.674635, -0.296791, 0.295849, 0.672494, 2.527746, 40.972413)"
			fill="none"
			stroke-linejoin="miter"
			d="M 1.501565 1.499483 L 62.304759 1.497929 "
			stroke="#ffffff"
			stroke-width="3"
			stroke-opacity="1"
			stroke-miterlimit="4"
		/>
	</g>
	<g clip-path="url(#146c1216ad)">
		<path
			stroke-linecap="round"
			transform="matrix(0.686909, 0.264661, -0.264144, 0.685568, 2.526955, 5.091216)"
			fill="none"
			stroke-linejoin="miter"
			d="M 1.498344 1.499277 L 62.385269 1.497666 "
			stroke="#ffffff"
			stroke-width="3"
			stroke-opacity="1"
			stroke-miterlimit="4"
		/>
	</g>
</svg>